<svg width="16" height="16" viewBox="0 0 16 16" fill="none" xmlns="http://www.w3.org/2000/svg">
<path d="M8.01666 2.66669C8.35855 2.66669 8.64033 2.92405 8.67884 3.25561L8.68332 3.33335L8.68266 7.35001L12.6667 7.35002C13.0348 7.35002 13.3333 7.64849 13.3333 8.01668C13.3333 8.35857 13.076 8.64036 12.7444 8.67886L12.6667 8.68335L8.68266 8.68335L8.68332 12.6667C8.68332 13.0349 8.38485 13.3334 8.01666 13.3334C7.67477 13.3334 7.39298 13.076 7.35447 12.7444L7.34999 12.6667L7.34932 8.68335L3.33332 8.68335C2.96513 8.68335 2.66666 8.38487 2.66666 8.01668C2.66666 7.67479 2.92402 7.39301 3.25558 7.3545L3.33332 7.35002L7.34932 7.35001L7.34999 3.33335C7.34999 2.96516 7.64847 2.66669 8.01666 2.66669Z" fill="#212B36"/>
</svg>
